# xmcd
#
# Track frame offsets: 
#        150
#        12342
#        22832
#        35057
#        45810
#        57380
#        68265
#        80782
#        92770
#        103432
#        115387
#        128112
#        139917
#        150940
#        165482
#        180962
#        191062
#        204647
#        215625
#        225375
#        239247
#        254022
#        265620
#        275982
#        285152
#        297690
#        309872
#        320927
#
# Disc length: 4441 seconds
#
# Revision: 5
# Processed by: cddbd v1.5.2PL0 Copyright (c) Steve Scherf et al.
# Submitted via: ExactAudioCopyFreeDBPlugin 1.0
#
DISCID=9e11571c
DTITLE=Sam Cooke - The Man Who Invented Soul [box set]
DYEAR=2000
DGENRE=Soul
TTITLE0=Chain Gang
TTITLE1=I Belong to Your Heart
TTITLE2=Teenage Sonata
TTITLE3=Love Me
TTITLE4=Sad Mood (unreleased version)
TTITLE5=If I Had You (I'd Be Happy)
TTITLE6=You Belong to Me
TTITLE7=Sad Mood
TTITLE8=Tenderness
TTITLE9=That's it, I Quit, I'm Movin' On
TTITLE10=Hold On
TTITLE11=Cupid
TTITLE12=Tenderness (unreleased version)
TTITLE13=Don't Get Around Much Any More
TTITLE14=Nobody Knows You When You're Down and Out
TTITLE15=Baby Won't You Please Come Home
TTITLE16=Trouble in Mind
TTITLE17=Out in the Cold Again
TTITLE18=Exactly Like You
TTITLE19=Since I Met You Baby
TTITLE20=I'm Just a Lucky So and So
TTITLE21=But Not for Me
TTITLE22=You're Always on My Mind
TTITLE23=(Don't Fight It) Feel It
TTITLE24=It's All Right
TTITLE25=Twistin' the Night Away
TTITLE26=One More Time
TTITLE27=Don't Cry on My Shoulder
EXTD=
EXTT0=
EXTT1=
EXTT2=
EXTT3=
EXTT4=
EXTT5=
EXTT6=
EXTT7=
EXTT8=
EXTT9=
EXTT10=
EXTT11=
EXTT12=
EXTT13=
EXTT14=
EXTT15=
EXTT16=
EXTT17=
EXTT18=
EXTT19=
EXTT20=
EXTT21=
EXTT22=
EXTT23=
EXTT24=
EXTT25=
EXTT26=
EXTT27=
PLAYORDER=
